<!-- <svg xmlns="http://www.w3.org/2000/svg" viewBox="0 0 841.9 595.3"><g fill="#61DAFB"><path d="M666.3 296.5c0-32.5-40.7-63.3-103.1-82.4 14.4-63.6 8-114.2-20.2-130.4-6.5-3.8-14.1-5.6-22.4-5.6v22.3c4.6 0 8.3.9 11.4 2.6 13.6 7.8 19.5 37.5 14.9 75.7-1.1 9.4-2.9 19.3-5.1 29.4-19.6-4.8-41-8.5-63.5-10.9-13.5-18.5-27.5-35.3-41.6-50 32.6-30.3 63.2-46.9 84-46.9V78c-27.5 0-63.5 19.6-99.9 53.6-36.4-33.8-72.4-53.2-99.9-53.2v22.3c20.7 0 51.4 16.5 84 46.6-14 14.7-28 31.4-41.3 49.9-22.6 2.4-44 6.1-63.6 11-2.3-10-4-19.7-5.2-29-4.7-38.2 1.1-67.9 14.6-75.8 3-1.8 6.9-2.6 11.5-2.6V78.5c-8.4 0-16 1.8-22.6 5.6-28.1 16.2-34.4 66.7-19.9 130.1-62.2 19.2-102.7 49.9-102.7 82.3 0 32.5 40.7 63.3 103.1 82.4-14.4 63.6-8 114.2 20.2 130.4 6.5 3.8 14.1 5.6 22.5 5.6 27.5 0 63.5-19.6 99.9-53.6 36.4 33.8 72.4 53.2 99.9 53.2 8.4 0 16-1.8 22.6-5.6 28.1-16.2 34.4-66.7 19.9-130.1 62-19.1 102.5-49.9 102.5-82.3zm-130.2-66.7c-3.7 12.9-8.3 26.2-13.5 39.5-4.1-8-8.4-16-13.1-24-4.6-8-9.5-15.8-14.4-23.4 14.2 2.1 27.9 4.7 41 7.9zm-45.8 106.5c-7.8 13.5-15.8 26.3-24.1 38.2-14.9 1.3-30 2-45.2 2-15.1 0-30.2-.7-45-1.9-8.3-11.9-16.4-24.6-24.2-38-7.6-13.1-14.5-26.4-20.8-39.8 6.2-13.4 13.2-26.8 20.7-39.9 7.8-13.5 15.8-26.3 24.1-38.2 14.9-1.3 30-2 45.2-2 15.1 0 30.2.7 45 1.9 8.3 11.9 16.4 24.6 24.2 38 7.6 13.1 14.5 26.4 20.8 39.8-6.3 13.4-13.2 26.8-20.7 39.9zm32.3-13c5.4 13.4 10 26.8 13.8 39.8-13.1 3.2-26.9 5.9-41.2 8 4.9-7.7 9.8-15.6 14.4-23.7 4.6-8 8.9-16.1 13-24.1zM421.2 430c-9.3-9.6-18.6-20.3-27.8-32 9 .4 18.2.7 27.5.7 9.4 0 18.7-.2 27.8-.7-9 11.7-18.3 22.4-27.5 32zm-74.4-58.9c-14.2-2.1-27.9-4.7-41-7.9 3.7-12.9 8.3-26.2 13.5-39.5 4.1 8 8.4 16 13.1 24 4.7 8 9.5 15.8 14.4 23.4zM420.7 163c9.3 9.6 18.6 20.3 27.8 32-9-.4-18.2-.7-27.5-.7-9.4 0-18.7.2-27.8.7 9-11.7 18.3-22.4 27.5-32zm-74 58.9c-4.9 7.7-9.8 15.6-14.4 23.7-4.6 8-8.9 16-13 24-5.4-13.4-10-26.8-13.8-39.8 13.1-3.1 26.9-5.8 41.2-7.9zm-90.5 125.2c-35.4-15.1-58.3-34.9-58.3-50.6 0-15.7 22.9-35.6 58.3-50.6 8.6-3.7 18-7 27.7-10.1 5.7 19.6 13.2 40 22.5 60.9-9.2 20.8-16.6 41.1-22.2 60.6-9.9-3.1-19.3-6.5-28-10.2zM310 490c-13.6-7.8-19.5-37.5-14.9-75.7 1.1-9.4 2.9-19.3 5.1-29.4 19.6 4.8 41 8.5 63.5 10.9 13.5 18.5 27.5 35.3 41.6 50-32.6 30.3-63.2 46.9-84 46.9-4.5-.1-8.3-1-11.3-2.7zm237.2-76.2c4.7 38.2-1.1 67.9-14.6 75.8-3 1.8-6.9 2.6-11.5 2.6-20.7 0-51.4-16.5-84-46.6 14-14.7 28-31.4 41.3-49.9 22.6-2.4 44-6.1 63.6-11 2.3 10.1 4.1 19.8 5.2 29.1zm38.5-66.7c-8.6 3.7-18 7-27.7 10.1-5.7-19.6-13.2-40-22.5-60.9 9.2-20.8 16.6-41.1 22.2-60.6 9.9 3.1 19.3 6.5 28.1 10.2 35.4 15.1 58.3 34.9 58.3 50.6-.1 15.7-23 35.6-58.4 50.6zM320.8 78.4z"/><circle cx="420.9" cy="296.5" r="45.7"/><path d="M520.5 78.1z"/></g></svg> -->

<svg xmlns="http://www.w3.org/2000/svg" id="Layer_1" data-name="Layer 1" viewBox="0 0 841.9 595.3"><path d="M40.59,4H23.41A3.41,3.41,0,0,0,20,7.41v9.17A3.41,3.41,0,0,0,23.41,20h3.91a.68.68,0,0,1,.68.68v.22A1.1,1.1,0,0,0,29.1,22H34.9A1.1,1.1,0,0,0,36,20.9v-.22a.68.68,0,0,1,.68-.68h3.91A3.41,3.41,0,0,0,44,16.59V7.41A3.41,3.41,0,0,0,40.59,4ZM38,12a2,2,0,0,1-1.51-.71.86.86,0,0,0-.66-.29H28.18a.86.86,0,0,0-.66.29A2,2,0,0,1,26,12a2,2,0,1,1,1.53-3.27.84.84,0,0,0,.65.27h7.63a.84.84,0,0,0,.65-.27A2,2,0,1,1,38,12Z"/><path d="M17,8a1,1,0,0,0-1,1v6a1,1,0,0,0,2,0V9A1,1,0,0,0,17,8Z"/><path d="M47,16a1,1,0,0,0,1-1V9a1,1,0,1,0-2,0v6A1,1,0,0,0,47,16Z"/><path d="M20,46.38A1.62,1.62,0,0,0,21.62,48H42.38A1.62,1.62,0,0,0,44,46.38v-17A5.36,5.36,0,0,0,38.64,24H25.36A5.36,5.36,0,0,0,20,29.36Zm8.32-13.77A2.5,2.5,0,0,1,31,32.23a2.54,2.54,0,0,0,2.06,0,2.5,2.5,0,0,1,2.65.39A2.6,2.6,0,0,1,36,36l-2,2.86a2.5,2.5,0,0,1-4.12,0l-2-2.85A2.6,2.6,0,0,1,28.32,32.62Z"/><path d="M20,56h-.1A1.9,1.9,0,0,0,18,57.9v1A1.07,1.07,0,0,0,19.07,60h9.87A1.07,1.07,0,0,0,30,58.93v-1A1.9,1.9,0,0,0,28.1,56H28V51.17A1.17,1.17,0,0,0,26.83,50H21.17A1.17,1.17,0,0,0,20,51.17Z"/><path d="M42.83,50H37.17A1.17,1.17,0,0,0,36,51.17V56h-.1A1.9,1.9,0,0,0,34,57.9v1A1.07,1.07,0,0,0,35.07,60h9.87A1.07,1.07,0,0,0,46,58.93v-1A1.9,1.9,0,0,0,44.1,56H44V51.17A1.17,1.17,0,0,0,42.83,50Z"/><path d="M14,31.12v9.73a1.55,1.55,0,0,1-.39,1.06,6,6,0,0,0,3.32,10A.93.93,0,0,0,18,51V49a1.33,1.33,0,0,0-.8-1.2,1.94,1.94,0,0,1-.1-3.48,1.8,1.8,0,0,0,.9-1.62V28.88a.86.86,0,0,0-.82-.88A3.12,3.12,0,0,0,14,31.12Z"/><path d="M46.8,47.76A1.33,1.33,0,0,0,46,49v2a.93.93,0,0,0,1.07.92,6,6,0,0,0,3.32-10A1.55,1.55,0,0,1,50,40.86V31.12A3.12,3.12,0,0,0,46.82,28a.86.86,0,0,0-.82.88V42.67a1.8,1.8,0,0,0,.9,1.62,1.94,1.94,0,0,1-.1,3.48Z"/></svg>